# xmcd CD database file
#
# Track frame offsets:
#	150
#	19913
#	39937
#	62588
#	87285
#	107752
#	126761
#	150864
#	173219
#	192955
#
# Disc length: 2906 seconds
#
# Revision: 0
# Processed by: cddbd v1.5.1PL0 Copyright (c) Steve Scherf et al.
# Submitted via: CDex 1.51
#
DISCID=730b580a
DTITLE=THE ANDY AZRIN TRIO  - ジャズで聴く　松任谷由美・荒井由美　作品集
DYEAR=1900
DGENRE=Jazz
TTITLE0=中央フリー・ウエイ
TTITLE1=最後の嘘
TTITLE2=DISTINY
TTITLE3=卒業写真
TTITLE4=時をかける少女
TTITLE5=ルージュの伝言
TTITLE6=恋人がサンタ・クロース
TTITLE7=守ってあげたい
TTITLE8=春よ、来い
TTITLE9=真夏の夜の夢
EXTD=
EXTT0=
EXTT1=
EXTT2=
EXTT3=
EXTT4=
EXTT5=
EXTT6=
EXTT7=
EXTT8=
EXTT9=
PLAYORDER=
